<svg width="35" height="35" viewBox="0 0 35 35" fill="none" xmlns="http://www.w3.org/2000/svg">
<path d="M28.468 34.7683C28.4556 34.7683 28.4433 34.7683 28.4309 34.7683C22.4924 34.5738 15.5353 28.8174 10.7419 24.0209C5.94227 19.2245 0.185873 12.2643 0.000673353 6.35359C-0.0672266 4.27939 5.02257 0.590985 5.07497 0.553885C6.39607 -0.365815 7.86217 -0.0387146 8.46407 0.794685C8.87147 1.35949 12.7297 7.20539 13.1494 7.86909C13.5846 8.55739 13.5198 9.58209 12.9766 10.6099C12.6772 11.1809 11.6833 12.9279 11.2173 13.7428C11.7204 14.4588 13.0507 16.2151 15.7977 18.9621C18.5478 21.7091 20.301 23.0425 21.0201 23.5456C21.835 23.0795 23.582 22.0857 24.153 21.7863C25.1653 21.2492 26.1839 21.1813 26.8784 21.6073C27.5883 22.0425 33.4188 25.9192 33.9558 26.2926C34.4065 26.6106 34.6966 27.1538 34.7552 27.7865C34.8108 28.4254 34.6133 29.1014 34.2028 29.6909C34.1688 29.7403 30.5236 34.7683 28.468 34.7683Z" fill="#0075FF"/>
</svg>
