<svg width="130" height="39" viewBox="0 0 130 39" fill="none" xmlns="http://www.w3.org/2000/svg">
<g clip-path="url(#clip0_14_32)">
<path d="M115 3.12885C107.047 3.12885 100.6 10.8871 100.6 20.4577C100.6 30.0282 107.047 37.7865 115 37.7865C122.953 37.7865 129.4 30.0282 129.4 20.4577C129.4 10.8871 122.953 3.12885 115 3.12885ZM111.475 27.6401H108.559V16.3475H111.475V27.6401ZM109.999 14.9612C109.078 14.9612 108.483 14.176 108.483 13.2048C108.483 12.2138 109.096 11.4521 110.037 11.4521C110.977 11.4521 111.553 12.2138 111.571 13.2048C111.571 14.176 110.977 14.9612 109.999 14.9612ZM122.125 27.6401H119.209V21.3819C119.209 19.9252 118.786 18.936 117.732 18.936C116.926 18.936 116.448 19.6057 116.236 20.2501C116.158 20.4793 116.139 20.8042 116.139 21.1273V27.6383H113.221V19.9486C113.221 18.5389 113.184 17.3601 113.145 16.3457H115.678L115.812 17.9143H115.87C116.254 17.1778 117.195 16.0912 118.768 16.0912C120.687 16.0912 122.125 17.6381 122.125 20.9631V27.6401Z" fill="#A7A7A7"/>
</g>
<path d="M66.875 2.25635C58.5915 2.25635 51.875 10.3389 51.875 20.3072C51.875 30.2755 58.5915 38.358 66.875 38.358C75.1585 38.358 81.875 30.2755 81.875 20.3072C81.875 10.3389 75.1585 2.25635 66.875 2.25635ZM74.0837 15.863C74.0937 16.0524 74.0937 16.2498 74.0937 16.4432C74.0937 22.3581 70.3504 29.1715 63.51 29.1715C61.4007 29.1715 59.4453 28.4341 57.798 27.1649C58.0993 27.2052 58.3873 27.2213 58.6953 27.2213C60.4364 27.2213 62.0368 26.5122 63.3125 25.3115C61.6786 25.2712 60.3058 23.9818 59.8371 22.209C60.4096 22.3097 60.9252 22.3097 61.5145 22.1284C60.6732 21.9227 59.917 21.3729 59.3744 20.5723C58.8318 19.7716 58.5362 18.7697 58.5379 17.7366V17.6802C59.0301 18.0146 59.6094 18.2201 60.2154 18.2483C59.7059 17.8397 59.2881 17.2861 58.999 16.6367C58.7099 15.9873 58.5584 15.262 58.558 14.5253C58.558 13.6912 58.7388 12.9297 59.0636 12.2689C59.9974 13.6523 61.1627 14.7837 62.4837 15.5897C63.8047 16.3956 65.2518 16.858 66.731 16.9468C66.2054 13.9048 68.0938 11.4429 70.3638 11.4429C71.4353 11.4429 72.3996 11.9829 73.0792 12.8532C73.9196 12.6638 74.7232 12.285 75.4397 11.7774C75.1618 12.8129 74.5792 13.6872 73.8058 14.2392C74.5558 14.1425 75.279 13.8927 75.9487 13.5422C75.4431 14.4366 74.8103 15.2304 74.0837 15.863Z" fill="#A7A7A7"/>
<path fill-rule="evenodd" clip-rule="evenodd" d="M15 2.4068C6.7125 2.4068 0 10.4846 0 20.4576C0 28.4451 4.29375 35.1917 10.2563 37.5834C11.0063 37.7413 11.2875 37.1998 11.2875 36.726C11.2875 36.2973 11.2688 34.8758 11.2688 33.364C7.5 34.1989 6.525 32.2584 6.225 31.243C6.05625 30.7241 5.325 29.1221 4.6875 28.6933C4.1625 28.3549 3.4125 27.52 4.66875 27.4975C5.85 27.4749 6.69375 28.8062 6.975 29.3477C8.325 32.0779 10.4812 31.3107 11.3438 30.8369C11.475 29.6636 11.8688 28.8739 12.3 28.4226C8.9625 27.9713 5.475 26.4144 5.475 19.51C5.475 17.5469 6.05625 15.9224 7.0125 14.6588C6.8625 14.2075 6.3375 12.3573 7.1625 9.87534C7.1625 9.87534 8.41875 9.4015 11.2875 11.7256C12.4875 11.3194 13.7625 11.1163 15.0375 11.1163C16.3125 11.1163 17.5875 11.3194 18.7875 11.7256C21.6562 9.37894 22.9125 9.87534 22.9125 9.87534C23.7375 12.3573 23.2125 14.2075 23.0625 14.6588C24.0188 15.9224 24.6 17.5244 24.6 19.51C24.6 26.437 21.0938 27.9713 17.7563 28.4226C18.3 28.9867 18.7688 30.0697 18.7688 31.762C18.7688 34.1763 18.75 36.1168 18.75 36.726C18.75 37.1998 19.0312 37.7639 19.7812 37.5834C22.759 36.3736 25.3465 34.0705 27.1796 30.9984C29.0127 27.9263 29.9991 24.2397 30 20.4576C30 10.4846 23.2875 2.4068 15 2.4068Z" fill="#A7A7A7"/>
<defs>
<clipPath id="clip0_14_32">
<rect width="30" height="36.1017" fill="white" transform="translate(100 2.4068)"/>
</clipPath>
</defs>
</svg>
